<svg width="177" height="189" viewBox="0 0 177 189" fill="none" xmlns="http://www.w3.org/2000/svg">
<path d="M39.32 15H38.438C38.186 13.068 37.6073 12.102 36.702 12.102H35.582V15H34.7V8.448C35.372 8.32667 35.974 8.266 36.506 8.266C37.2993 8.266 37.9293 8.434 38.396 8.77C38.8627 9.106 39.096 9.56333 39.096 10.142C39.096 10.9073 38.732 11.458 38.004 11.794C38.3493 12.0273 38.6153 12.368 38.802 12.816C38.998 13.264 39.1707 13.992 39.32 15ZM38.242 10.198C38.242 9.42333 37.6633 9.036 36.506 9.036C36.1327 9.036 35.8247 9.05 35.582 9.078V11.374H36.66C37.7147 11.374 38.242 10.982 38.242 10.198ZM44.1854 15H40.2234V8.336H44.1854V9.092H41.1054V11.108H43.8494V11.864H41.1054V14.244H44.1854V15Z" fill="#403F3F"/>
<path d="M129.844 15H125.7V8.336H126.582V14.244H129.844V15ZM134.693 15H130.731V8.336H134.693V9.092H131.613V11.108H134.357V11.864H131.613V14.244H134.693V15Z" fill="#403F3F"/>
<circle cx="39.5" cy="53.5" r="25.25" stroke="#403F3F" stroke-width="0.5"/>
<circle cx="130.5" cy="53.5" r="25.25" stroke="#403F3F" stroke-width="0.5"/>
<line x1="1.31134e-08" y1="88.85" x2="177" y2="88.85" stroke="#686868" stroke-width="0.3"/>
<line x1="85.15" y1="6.55671e-09" x2="85.15" y2="189" stroke="#686868" stroke-width="0.3"/>
<path d="M76 160C77.5 160.667 80.6 162.3 81 163.5" stroke="#403F3F"/>
<path d="M77.5 122.5C76.6667 121.333 73.9 119.7 69.5 122.5C64.5 126.5 62 133 61 136.5" stroke="#403F3F" stroke-width="0.5"/>
<path d="M61 143C62.5 151.5 73.4 166.3 79 157.5C80 156 81 155.5 81 158.5" stroke="#403F3F" stroke-width="0.5"/>
<path d="M74.5 121C75.6667 119.333 78.3 116 79.5 116" stroke="#403F3F" stroke-width="0.5"/>
<path d="M58 133.25C58.9854 133.25 59.9168 133.9 60.6152 135.035C61.3111 136.166 61.75 137.744 61.75 139.5C61.75 141.256 61.3111 142.834 60.6152 143.965C59.9168 145.1 58.9854 145.75 58 145.75C57.0146 145.75 56.0832 145.1 55.3848 143.965C54.6889 142.834 54.25 141.256 54.25 139.5C54.25 137.744 54.6889 136.166 55.3848 135.035C56.0832 133.9 57.0146 133.25 58 133.25Z" stroke="#403F3F" stroke-width="0.5"/>
<path d="M6.5 129.066C7.35615 128.21 8.46893 127.174 9.76257 126.066M6.5 151.066C6.5 151.066 12 157 18.5 160.066C31 165.066 41.1667 162.399 44.5 160.066C49 157.232 57.2 148.166 54 134.566C50 117.566 37.5 116 28.5 116.5C22.4709 116.835 14.7647 121.78 9.76257 126.066M4 126.066H9.76257" stroke="#403F3F" stroke-width="0.5"/>
<path d="M5 154.5H10" stroke="#403F3F" stroke-width="0.5"/>
<circle cx="34.5" cy="140.066" r="1.2" stroke="#403F3F" stroke-width="0.6"/>
<path d="M107.5 143.5C106.167 148.167 100.6 157.6 93 158" stroke="#403F3F" stroke-width="0.5"/>
<path d="M97 157C96.3333 158 95.1 160.5 95.5 162.5" stroke="#403F3F" stroke-width="0.5"/>
<path d="M110 132.825C109.015 132.825 108.083 133.475 107.385 134.61C106.689 135.741 106.25 137.319 106.25 139.075C106.25 140.831 106.689 142.409 107.385 143.54C108.083 144.675 109.015 145.325 110 145.325C110.985 145.325 111.917 144.675 112.615 143.54C113.311 142.409 113.75 140.831 113.75 139.075C113.75 137.319 113.311 135.741 112.615 134.61C111.917 133.475 110.985 132.825 110 132.825Z" stroke="#403F3F" stroke-width="0.5"/>
<path d="M161.5 129.575C160.644 128.719 158.794 126.749 157.5 125.641M161.5 150.641C161.5 150.641 156.824 155.686 151 158.876M156.334 124.66L157.5 125.641M157.5 125.641C152.498 121.355 145.529 116.41 139.5 116.075C130.5 115.575 118 117.141 114 134.141C110.8 147.741 119 156.808 123.5 159.641C126.833 161.974 137 164.641 149.5 159.641C150.007 159.402 150.508 159.145 151 158.876M151 158.876C153.5 158.486 158.8 158.093 160 159.641" stroke="#403F3F" stroke-width="0.5"/>
<circle cx="1.5" cy="1.5" r="1.2" transform="matrix(-1 0 0 1 135 138.141)" stroke="#403F3F" stroke-width="0.6"/>
<path d="M95.5 118C96.1667 119.667 97.7 123 98.5 123" stroke="#403F3F" stroke-width="0.5"/>
<path d="M94.5 122C98.3333 122.167 106.2 126.1 107 136.5" stroke="#403F3F" stroke-width="0.5"/>
</svg>
